# AST/ASF file generated using VICON BodyLanguage
# -----------------------------------------------
:version 1.10
:name VICON
:units
  mass 1.0
  length 0.45
  angle deg
:documentation
   .ast/.asf automatically generated from VICON data using
   VICON BodyBuilder and BodyLanguage model FoxedUp or BRILLIANT.MOD
:root
   order TX TY TZ RX RY RZ
   axis XYZ
   position 0 0 0  
   orientation 0 0 0 
:bonedata
  begin
     id 1 
     name lhipjoint
     direction 0.584852 -0.759097 0.285867 
     length 2.43633 
     axis 0 0 0  XYZ
  end
  begin
     id 2 
     name lfemur
     direction 0.34202 -0.939693 0  
     length 7.14704  
     axis 0 0 20  XYZ
    dof rx ry rz
    limits (-160.0 20.0)
           (-70.0 70.0)
           (-60.0 70.0)
  end
  begin
     id 3 
     name ltibia
     direction 0.342022 -0.939692 0   
     length 7.68483   
     axis 0 0 20   XYZ
    dof rx
    limits (-10.0 170.0)
  end
  begin
     id 4 
     name lfoot
     direction 0.0999605 -0.274639 0.956337   
     length 2.40452   
     axis -90 7.62852e-016 20   XYZ
    dof rx rz
    limits (-45.0 90.0)
           (-70.0 20.0)
  end
  begin
     id 5 
     name ltoes
     direction 1.53468e-011 -4.21881e-011 1   
     length 1.19837   
     axis -90 7.62852e-016 20   XYZ
    dof rx
    limits (-90.0 20.0)
  end
  begin
     id 6 
     name rhipjoint
     direction -0.569886 -0.769002 0.289597   
     length 2.40495  
     axis 0 0 0  XYZ 
  end
  begin
     id 7 
     name rfemur
     direction -0.34202 -0.939693 0   
     length 7.45086   
     axis 0 0 -20   XYZ
    dof rx ry rz
    limits (-160.0 20.0)
           (-70.0 70.0)
           (-70.0 60.0)
  end
  begin
     id 8 
     name rtibia
     direction -0.34202 -0.939693 0   
     length 7.76831   
     axis 0 0 -20   XYZ
    dof rx
    limits (-10.0 170.0)
 end
 begin
     id 9 
     name rfoot
     direction -0.0798572 -0.219406 0.97236   
     length 2.35911  
     axis -90 -7.62852e-016 -20   XYZ
    dof rx rz
    limits (-45.0 90.0)
           (-20.0 70.0)
  end
  begin
     id 10 
     name rtoes
     direction -1.53469e-011 -4.21728e-011 1   
     length 1.18261   
     axis -90 -7.62852e-016 -20   XYZ
    dof rx
    limits (-90.0 20.0)
  end
  begin
     id 11 
     name lowerback
     direction 0.0242088 0.999437 0.0232389   
     length 2.1561   
     axis 0 0 0   XYZ
    dof rx ry rz
    limits (-20.0 45.0)
           (-30.0 30.0)
           (-30.0 30.0)
  end
  begin
     id 12 
     name upperback
     direction -0.0356893 0.999013 -0.0264323   
     length 2.14431   
     axis 0 0 0   XYZ
    dof rx ry rz
    limits (-20.0 45.0)
           (-30.0 30.0)
           (-30.0 30.0)
  end
  begin
     id 13 
     name thorax
     direction -0.0472163 0.998194 -0.0371284   
     length 2.16169   
     axis 0 0 0   XYZ
    dof rx ry rz
    limits (-20.0 45.0)
           (-30.0 30.0)
           (-30.0 30.0)
  end
  begin
     id 14 
     name lowerneck
     direction 0.00863244 0.999921 0.00911972   
     length 1.58651   
     axis 0 0 0   XYZ
    dof rx ry rz
    limits (-20.0 45.0)
           (-30.0 30.0)
           (-30.0 30.0)
  end
  begin
     id 15 
     name upperneck
     direction 0.149523 0.979068 -0.138086   
     length 1.57486   
     axis 0 0 0   XYZ
    dof rx ry rz
    limits (-20.0 45.0)
           (-30.0 30.0)
           (-30.0 30.0)
  end
  begin
     id 16
     name head
     direction 0.0445219 0.997708 -0.0509576  
     length 1.6019  
     axis 0 0 0   XYZ
    dof rx ry rz
    limits (-20.0 45.0)
           (-30.0 30.0)
           (-30.0 30.0)
  end
  begin
     id 17 
     name lclavicle
     direction 0.911271 0.381667 -0.154644  
     length 3.80848  
     axis 0 0 0   XYZ
    dof ry rz
    limits (-20.0 10.0)
           (0.0 20.0)
  end
  begin
     id 18 
     name lhumerus
     direction 1 -4.49003e-011 2.1308e-027   
     length 5.19069   
     axis 180 -30 -90   XYZ
    dof rx ry rz
    limits (-60.0 90.0)
           (-90.0 90.0)
           (-90.0 90.0)
  end
  begin
     id 19
     name lradius
     direction 1 -4.48914e-011 4.01554e-027   
     length 3.30016   
     axis 180 -30 -90   XYZ
    dof rx
    limits (-10.0 170.0)
  end
  begin
     id 20
     name lwrist
     direction 1 -4.49003e-011 1.1934e-026   
     length 1.65008   
     axis -8.46377e-015 90 90   XYZ
    dof ry
    limits (-180.0 0.0)
 end
  begin
     id 21 
     name lhand
     direction 1 -4.49034e-011 2.38659e-026   
     length 0.707698   
     axis -1.52313e-014 90 90   XYZ
    dof rx rz
    limits (-90.0 90.0)
           (-45.0 45.0)
  end
  begin
     id 22 
     name lfingers
     direction 1 -4.48691e-011 4.77775e-026   
     length 0.570564   
     axis -3.04623e-014 90 90   XYZ
    dof rx
    limits (0.0 90.0)
  end
  begin
     id 23
     name lthumb
     direction 0.707107 -6.34832e-011 0.707107   
     length 0.819219   
     axis -90 45 -1.62303e-014   XYZ
    dof rx rz
    limits (-45.0 45.0)
           (-45.0 45.0)
  end
  begin
     id 24 
     name rclavicle
     direction -0.815579 0.573708 -0.0754329   
     length 3.54371  
     axis 0 0 0   XYZ 
    dof ry rz
    limits (-10.0 20.0)
           (-20.0 0.0)
  end
  begin
     id 25 
     name rhumerus
     direction -1 -4.48956e-011 3.05351e-028  
     length 5.23924   
     axis 180 30 90   XYZ
    dof rx ry rz
    limits (-90.0 60.0)
           (-90.0 90.0)
           (-90.0 90.0)
  end
  begin
     id 26 
     name rradius
     direction -1 -4.49013e-011 3.53849e-027   
     length 3.32953   
     axis 180 30 90   XYZ
    dof rx
    limits (-10.0 170.0)
  end
  begin
     id 27 
     name rwrist
     direction -1 -4.48901e-011 1.19374e-026   
     length 1.66477   
     axis -8.46377e-015 -90 -90   XYZ
    dof ry
    limits (-180.0 0.0)
  end
  begin
     id 28
     name rhand
     direction -1 -4.48877e-011 2.38764e-026   
     length 0.607414   
     axis -1.52313e-014 -90 -90   XYZ
    dof rx rz
    limits (-90.0 90.0)
           (-45.0 45.0)
  end
  begin
     id 29
     name rfingers
     direction -1 -4.48882e-011 4.77521e-026   
     length 0.489712   
     axis -3.04623e-014 -90 -90   XYZ
    dof rx
    limits (0.0 90.0)
  end
  begin
     id 30
     name rthumb
     direction -0.707107 -6.34974e-011 0.707107   
     length 0.703132   
     axis -90 -45 1.62303e-014   XYZ
    dof rx rz
    limits (-45.0 45.0)
           (-45.0 45.0)
  end
:hierarchy
  begin
    root lhipjoint rhipjoint lowerback
    lhipjoint lfemur
    lfemur ltibia
    ltibia lfoot
    lfoot ltoes
    rhipjoint rfemur
    rfemur rtibia
    rtibia rfoot
    rfoot rtoes
    lowerback upperback
    upperback thorax
    thorax lowerneck lclavicle rclavicle
    lowerneck upperneck
    upperneck head
    lclavicle lhumerus
    lhumerus lradius
    lradius lwrist
    lwrist lhand lthumb
    lhand lfingers
    rclavicle rhumerus
    rhumerus rradius
    rradius rwrist
    rwrist rhand rthumb
    rhand rfingers
  end

#!OML:ASF E:\VariousWalksJay\Project 1\Capture day 1\Session 1\Actor2.ASF
:FULLY-SPECIFIED
:DEGREES
322
root -3.94433 17.2932 -8.80631 1.45191 18.2282 -6.64095
lowerback -4.34785 0.462214 7.23133
upperback 3.33702 0.141617 -0.480254
thorax 5.96999 0.385523 -4.55328
lowerneck -13.0516 -3.89359 -2.87541
upperneck 16.1275 -6.30753 8.57501
head 7.48545 -2.41046 2.62394
rclavicle -8.22969e-014 1.03368e-014
rhumerus -31.5518 3.29723 -87.6872
rradius 38.5644
rwrist -4.66325
rhand -10.5536 -8.56862
rfingers 7.12502
rthumb 15.4505 -37.9711
lclavicle -8.22969e-014 1.03368e-014
lhumerus -27.0088 -4.03164 84.3171
lradius 20.8752
lwrist 5.75873
lhand -9.34048 -8.9143
lfingers 7.12502
lthumb 16.6187 20.3942
rfemur -16.0543 -2.49685 25.0169
rtibia 39.067
rfoot -25.0338 -10.5261
rtoes -2.54515
lfemur -14.4716 6.63569 -12.6456
ltibia 37.4908
lfoot -26.6747 15.3913
ltoes -6.67207
323
root -3.95035 17.2932 -8.80257 1.42934 18.3737 -6.62862
lowerback -4.33134 0.464558 7.25515
upperback 3.33271 0.144202 -0.472014
thorax 5.95655 0.387004 -4.55774
lowerneck -13.0594 -3.91939 -2.90124
upperneck 16.11 -6.33941 8.59248
head 7.48453 -2.42585 2.63026
rclavicle -1.25234e-014 -1.11319e-014
rhumerus -31.5928 3.36211 -87.7403
rradius 38.5198
rwrist -4.58163
rhand -10.5233 -8.53158
rfingers 7.12502
rthumb 15.4797 -37.9318
lclavicle -1.25234e-014 -1.11319e-014
lhumerus -26.9989 -4.30771 84.4119
lradius 21.0797
lwrist 5.9099
lhand -9.38563 -8.93139
lfingers 7.12502
lthumb 16.5752 20.3807
rfemur -16.0121 -2.55644 25.0349
rtibia 39.0658
rfoot -25.0747 -10.6213
rtoes -2.50947
lfemur -14.4763 6.5942 -12.6269
ltibia 37.4912
lfoot -26.6125 15.3211
ltoes -6.76284
324
root -3.95641 17.2932 -8.79888 1.40653 18.5193 -6.6171
lowerback -4.31306 0.464608 7.27664
upperback 3.32964 0.143969 -0.463199
thorax 5.94298 0.38701 -4.56054
lowerneck -13.0649 -3.94423 -2.92979
upperneck 16.0832 -6.36943 8.61387
head 7.48032 -2.44049 2.6385
rclavicle 1.88845e-014 0
rhumerus -31.6278 3.42872 -87.7942
rradius 38.4676
rwrist -4.52137
rhand -10.4686 -8.50785
rfingers 7.12502
rthumb 15.5323 -37.904
lclavicle 1.88845e-014 0
lhumerus -26.9926 -4.58409 84.5078
lradius 21.2909
lwrist 6.06402
lhand -9.43977 -8.94971
lfingers 7.12502
lthumb 16.5231 20.3668
rfemur -15.9702 -2.61471 25.0538
rtibia 39.0651
rfoot -25.1161 -10.7159
rtoes -2.50204
lfemur -14.4822 6.55781 -12.6066
ltibia 37.4931
lfoot -26.5499 15.2461
ltoes -6.85383
325
root -3.96248 17.2931 -8.79519 1.3854 18.6633 -6.60464
lowerback -4.29601 0.46419 7.29451
upperback 3.32644 0.143323 -0.455334
thorax 5.9299 0.386694 -4.56235
lowerneck -13.0603 -3.96893 -2.9539
upperneck 16.0448 -6.39889 8.6332
head 7.47028 -2.45538 2.64546
rclavicle -8.00108e-014 3.18055e-015
rhumerus -31.6628 3.49561 -87.8513
rradius 38.4154
rwrist -4.47922
rhand -10.395 -8.51719
rfingers 7.12502
rthumb 15.6033 -37.9079
lclavicle -8.00108e-014 3.18055e-015
lhumerus -26.9928 -4.86605 84.605
lradius 21.5103
lwrist 6.22658
lhand -9.49839 -8.95983
lfingers 7.12502
lthumb 16.4666 20.3613
rfemur -15.93 -2.66947 25.0717
rtibia 39.0652
rfoot -25.1588 -10.8093
rtoes -2.4863
lfemur -14.4898 6.52733 -12.5869
ltibia 37.4958
lfoot -26.4882 15.1679
ltoes -6.94428
326
root -3.96856 17.2929 -8.79142 1.36649 18.8034 -6.59211
lowerback -4.28175 0.462426 7.3089
upperback 3.32487 0.140834 -0.447373
thorax 5.91985 0.385476 -4.56226
lowerneck -13.0558 -3.99224 -2.97656
upperneck 16.001 -6.42631 8.65252
head 7.45835 -2.46936 2.65238
rclavicle 4.96962e-014 -9.54166e-015
rhumerus -31.6898 3.57229 -87.9127
rradius 38.3588
rwrist -4.45451
rhand -10.2904 -8.55623
rfingers 7.12502
rthumb 15.704 -37.939
lclavicle 4.96962e-014 -9.54166e-015
lhumerus -26.994 -5.13753 84.6994
lradius 21.7333
lwrist 6.39332
lhand -9.55466 -8.97117
lfingers 7.12502
lthumb 16.4125 20.3545
rfemur -15.8925 -2.71763 25.09
rtibia 39.0665
rfoot -25.2041 -10.9003
rtoes -2.45731
lfemur -14.499 6.50276 -12.5668
ltibia 37.4987
lfoot -26.4279 15.0868
ltoes -7.03022
